# xmcd
#
# Track frame offsets:
#	150
#	12913
#	24812
#	39453
#	52269
#	68049
#	85152
#	108705
#	125221
#	143869
#	163428
#	182028
#	195409
#	213316
#	234725
#	251866
#	272056
#	289906
#	308036
#	326570
#
# Disc length: 4618 seconds
#
# Revision: 1
# Processed by: cddbd v1.5.2PL0 Copyright (c) Steve Scherf et al.
# Submitted via: audiograbber 1.83.01
#
DISCID=31120814
DTITLE=Robert Cray - Collected CD1
DYEAR=2018
DGENRE=Blues
TTITLE0=Too Many Cooks
TTITLE1=That's What I'll Do
TTITLE2=Nice As A Fool Can Be
TTITLE3=Got To Make A Comeback
TTITLE4=Phone Booth
TTITLE5=Change Of Heart, Change Of Mind (S.O.F.T.)
TTITLE6=I've Slipped Her Mind
TTITLE7=I Guess I Showed Her
TTITLE8=Smoking Gun
TTITLE9=Right Next Door (Because Of Me)
TTITLE10=Foul Play
TTITLE11=More Than I Can Stand
TTITLE12=Nothin' But A Woman
TTITLE13=Night Patrol
TTITLE14=Don't Be Afraid Of The Dark
TTITLE15=Acting This Way
TTITLE16=Don't You Even Care
TTITLE17=The Forecast (Calls For Pain)
TTITLE18=Bouncin' Back
TTITLE19=Consequences
EXTD=
EXTT0=
EXTT1=
EXTT2=
EXTT3=
EXTT4=
EXTT5=
EXTT6=
EXTT7=
EXTT8=
EXTT9=
EXTT10=
EXTT11=
EXTT12=
EXTT13=
EXTT14=
EXTT15=
EXTT16=
EXTT17=
EXTT18=
EXTT19=
PLAYORDER=
